<?xml version="1.0" encoding="utf-8"?>
<svg data-v-423bf9ae="" viewBox="0 0 306 90" class="iconLeftSlogan" xmlns="http://www.w3.org/2000/svg">
  <g data-v-423bf9ae="" id="05c2a3e8-85c9-4c1b-b8bf-7cd3937134fc" fill="#844112" transform="matrix(4.192871994451495,0,0,4.192871994451495,108.2389925883293,-2.935009690482019)">
    <path d="M5.66 4.09C5.12 3.71 4.40 3.46 3.70 3.46C1.90 3.46 0.45 4.68 0.45 6.83C0.45 8.68 1.69 10.18 3.70 10.18C4.98 10.18 6.31 10.77 6.31 12.25C6.31 13.72 5.08 14.34 3.70 14.34C2.31 14.34 1.11 13.66 1.11 12.25L0.42 12.25C0.42 14 1.86 15.01 3.70 15.01C5.53 15.01 6.99 14.11 6.99 12.25C6.99 11.06 6.31 10.21 5.10 9.77C6.24 9.25 6.96 8.04 6.96 6.83C6.96 5.71 6.59 5.01 6.10 4.48L6.78 3.70L6.33 3.30ZM3.70 4.14C5.12 4.14 6.29 5.08 6.29 6.83C6.29 8.26 5.12 9.49 3.70 9.49C2.11 9.49 1.13 8.26 1.13 6.83C1.13 5.03 2.28 4.14 3.70 4.14ZM14.34 3.58L14.34 5.10C13.76 4.02 12.63 3.50 11.51 3.50C9.58 3.50 7.99 4.93 7.99 7.04C7.99 9.16 9.58 10.61 11.51 10.61C12.63 10.61 13.66 10.11 14.34 9.03L14.34 10.50L15.02 10.50C15.02 8.19 15.02 5.89 15.02 3.58ZM11.51 4.16C15.36 4.16 15.36 9.94 11.51 9.94C9.94 9.94 8.68 8.78 8.68 7.04C8.68 5.31 9.94 4.16 11.51 4.16ZM16.88 0.70L16.88 10.50L17.57 10.50L17.57 0.70ZM19.49 0.70L19.49 10.50L20.17 10.50L20.17 0.70ZM22.78 3.56L22.78 10.50L22.09 10.50L22.09 3.56ZM21.90 1.33C21.90 2.06 23.00 2.06 23.00 1.33C23.00 0.60 21.90 0.60 21.90 1.33ZM29.62 4.09C29.09 3.71 28.36 3.46 27.66 3.46C25.87 3.46 24.42 4.68 24.42 6.83C24.42 8.68 25.66 10.18 27.66 10.18C28.95 10.18 30.28 10.77 30.28 12.25C30.28 13.72 29.05 14.34 27.66 14.34C26.28 14.34 25.07 13.66 25.07 12.25L24.39 12.25C24.39 14 25.83 15.01 27.66 15.01C29.50 15.01 30.95 14.11 30.95 12.25C30.95 11.06 30.28 10.21 29.06 9.77C30.21 9.25 30.93 8.04 30.93 6.83C30.93 5.71 30.56 5.01 30.07 4.48L30.74 3.70L30.30 3.30ZM27.66 4.14C29.09 4.14 30.25 5.08 30.25 6.83C30.25 8.26 29.09 9.49 27.66 9.49C26.08 9.49 25.10 8.26 25.10 6.83C25.10 5.03 26.25 4.14 27.66 4.14ZM38.30 3.58L38.30 5.10C37.73 4.02 36.60 3.50 35.48 3.50C33.54 3.50 31.96 4.93 31.96 7.04C31.96 9.16 33.54 10.61 35.48 10.61C36.60 10.61 37.63 10.11 38.30 9.03L38.30 10.50L38.99 10.50C38.99 8.19 38.99 5.89 38.99 3.58ZM35.48 4.16C39.33 4.16 39.33 9.94 35.48 9.94C33.91 9.94 32.65 8.78 32.65 7.04C32.65 5.31 33.91 4.16 35.48 4.16ZM40.85 3.58L40.85 10.50L41.54 10.50L41.54 6.65C41.54 5.22 42.53 4.14 43.96 4.13C45.46 4.12 46.42 4.96 46.42 6.52L46.42 10.50L47.11 10.50L47.11 6.51C47.11 4.59 45.84 3.46 43.99 3.46C43.02 3.47 42.06 3.86 41.52 4.82L41.52 3.58Z"/>
  </g>
  <g data-v-423bf9ae="" id="e0b998f5-e498-4f3c-9b4b-82f3bd5c3510" transform="matrix(2.8125,0,0,2.8125,0,0)" stroke="none" fill="#844112">
    <path d="M16 32c8.837 0 16-7.163 16-16S24.837 0 16 0 0 7.163 0 16s7.163 16 16 16zM14.817 6.421h2v8.886h8.887v2H14.817V6.421zm-5.959.437h2v14.283h14.283v2H8.858V6.858z"/>
  </g>
  <g data-v-423bf9ae="" id="2e2dfb15-4125-4954-a1f5-e06eeed913de" fill="#844112" transform="matrix(0.867126, 0, 0, 0.867126, 104.20224, 61.713593)" style="">
    <path d="M5.25 11.06C5.14 10.86 5.00 10.71 4.82 10.57C4.63 10.43 4.42 10.32 4.20 10.23C3.98 10.15 3.72 10.05 3.49 9.98C3.25 9.91 3.01 9.83 2.77 9.76C2.55 9.69 2.34 9.59 2.16 9.49C1.97 9.39 1.83 9.27 1.72 9.13C1.61 8.99 1.55 8.81 1.55 8.58C1.55 8.40 1.58 8.23 1.67 8.08C1.75 7.92 1.86 7.77 2.02 7.64C2.16 7.52 2.34 7.43 2.55 7.36C2.76 7.29 2.98 7.25 3.23 7.25C3.60 7.25 3.96 7.31 4.34 7.43C4.35 7.60 4.37 7.77 4.38 7.92C4.40 8.08 4.40 8.19 4.41 8.27C4.42 8.36 4.42 8.43 4.42 8.44C4.44 8.67 4.54 8.78 4.73 8.78L5.07 8.78L5.07 7.11C4.34 6.86 3.72 6.75 3.22 6.75C2.87 6.75 2.55 6.80 2.27 6.90C1.99 7.00 1.74 7.14 1.54 7.31C1.34 7.48 1.19 7.69 1.08 7.91C0.97 8.13 0.92 8.37 0.92 8.62C0.92 8.92 0.98 9.16 1.09 9.35C1.20 9.55 1.34 9.70 1.53 9.84C1.71 9.98 1.90 10.09 2.14 10.18C2.37 10.26 2.60 10.35 2.86 10.42C3.09 10.49 3.33 10.57 3.57 10.64C3.79 10.71 4.00 10.81 4.19 10.92C4.37 11.03 4.52 11.16 4.63 11.31C4.75 11.47 4.80 11.65 4.80 11.89C4.80 12.10 4.76 12.29 4.69 12.49C4.61 12.68 4.49 12.84 4.34 12.98C4.19 13.12 4.00 13.23 3.78 13.31C3.56 13.40 3.30 13.44 3.01 13.44C2.48 13.44 2.03 13.37 1.65 13.22C1.64 13.03 1.62 12.87 1.61 12.71C1.60 12.56 1.60 12.43 1.58 12.35C1.57 12.26 1.57 12.19 1.57 12.18C1.55 11.96 1.46 11.84 1.26 11.84L0.92 11.84L0.92 13.54C1.60 13.79 2.28 13.93 2.98 13.93C3.37 13.93 3.71 13.87 4.02 13.76C4.33 13.65 4.58 13.50 4.79 13.30C5.00 13.10 5.15 12.89 5.26 12.63C5.38 12.36 5.43 12.08 5.43 11.77C5.43 11.49 5.36 11.26 5.25 11.06ZM16.70 6.73C16.20 6.73 15.75 6.83 15.36 7.00C14.97 7.17 14.63 7.41 14.35 7.71C14.07 8.02 13.87 8.40 13.73 8.85C13.59 9.30 13.51 9.79 13.51 10.33C13.51 10.88 13.59 11.37 13.73 11.80C13.87 12.24 14.07 12.63 14.35 12.94C14.63 13.24 14.97 13.48 15.36 13.65C15.75 13.82 16.20 13.90 16.70 13.90C17.21 13.90 17.64 13.82 18.03 13.65C18.42 13.48 18.76 13.24 19.03 12.94C19.29 12.63 19.52 12.24 19.66 11.80C19.80 11.37 19.87 10.88 19.87 10.33C19.87 9.79 19.80 9.30 19.66 8.85C19.52 8.40 19.29 8.02 19.03 7.71C18.76 7.41 18.42 7.17 18.03 7.00C17.64 6.83 17.21 6.73 16.70 6.73ZM16.70 13.38C16.28 13.38 15.92 13.31 15.61 13.17C15.30 13.03 15.04 12.82 14.83 12.56C14.62 12.29 14.48 11.97 14.36 11.59C14.25 11.21 14.21 10.79 14.21 10.33C14.21 9.87 14.25 9.45 14.36 9.07C14.48 8.69 14.62 8.37 14.83 8.11C15.04 7.84 15.30 7.62 15.61 7.48C15.92 7.34 16.28 7.27 16.70 7.27C17.12 7.27 17.47 7.34 17.78 7.48C18.09 7.62 18.35 7.84 18.56 8.11C18.77 8.37 18.93 8.69 19.03 9.07C19.12 9.45 19.18 9.87 19.18 10.33C19.18 10.79 19.12 11.21 19.03 11.59C18.93 11.97 18.77 12.29 18.56 12.56C18.35 12.82 18.09 13.03 17.78 13.17C17.47 13.31 17.12 13.38 16.70 13.38ZM29.97 5.32C30.06 5.08 30.16 4.90 30.30 4.75C30.44 4.59 30.60 4.48 30.80 4.41C31.00 4.34 31.21 4.31 31.43 4.31C31.57 4.31 31.70 4.33 31.79 4.34C31.89 4.35 31.96 4.35 32.02 4.35C32.10 4.35 32.16 4.33 32.16 4.26L32.17 3.93C32.06 3.89 31.92 3.85 31.78 3.82C31.63 3.79 31.49 3.79 31.35 3.79C31.02 3.79 30.74 3.84 30.48 3.93C30.21 4.03 29.99 4.20 29.81 4.40C29.62 4.59 29.47 4.84 29.37 5.14C29.27 5.43 29.22 5.80 29.22 6.19L29.22 7.07L28.03 7.07L28.03 7.35C28.03 7.46 28.08 7.50 28.22 7.52L29.22 7.59L29.22 13.26C29.05 13.26 28.91 13.27 28.77 13.27C28.63 13.27 28.53 13.29 28.46 13.29L28.34 13.29C28.15 13.30 28.06 13.38 28.06 13.54L28.06 13.82L29.23 13.82L29.88 13.82L31.05 13.82L31.05 13.54C31.05 13.38 30.95 13.30 30.77 13.29L30.65 13.29C30.58 13.29 30.48 13.27 30.34 13.27C30.20 13.27 30.04 13.26 29.88 13.26L29.88 7.57L32.12 7.57L32.12 7.07L29.86 7.07L29.86 6.22C29.86 5.87 29.89 5.56 29.97 5.32ZM42.67 13.93C42.97 13.93 43.25 13.86 43.53 13.75C43.79 13.64 44.02 13.48 44.20 13.29L44.02 12.98C43.97 12.94 43.95 12.92 43.90 12.92C43.88 12.92 43.82 12.94 43.76 12.99C43.71 13.05 43.64 13.09 43.55 13.15C43.47 13.20 43.36 13.26 43.23 13.31C43.11 13.37 42.98 13.38 42.81 13.38C42.67 13.38 42.53 13.36 42.42 13.31C42.31 13.27 42.21 13.20 42.13 13.12C42.04 13.03 41.97 12.92 41.92 12.78C41.86 12.64 41.85 12.49 41.85 12.29L41.85 7.57L44.04 7.57L44.04 7.07L41.85 7.07L41.85 4.41L41.52 4.41C41.47 4.41 41.44 4.44 41.41 4.47C41.38 4.49 41.36 4.54 41.36 4.58L41.19 7.07L40.00 7.15L40.00 7.41C40.00 7.46 40.01 7.49 40.04 7.52C40.07 7.55 40.12 7.57 40.18 7.57L41.17 7.57L41.17 12.33C41.17 12.88 41.30 13.27 41.57 13.54C41.83 13.80 42.20 13.93 42.67 13.93ZM62.54 6.86L62.05 6.86L60.69 6.86L60.69 7.13C60.69 7.28 60.79 7.36 60.97 7.38L61.04 7.38C61.07 7.38 61.10 7.39 61.14 7.39L61.35 7.39C61.45 7.39 61.56 7.41 61.68 7.41L60.05 12.52C60.00 12.63 59.99 12.73 59.96 12.82C59.93 12.92 59.92 13.02 59.91 13.12C59.86 12.92 59.81 12.73 59.74 12.52L57.89 6.97C57.86 6.87 57.79 6.82 57.69 6.82L57.41 6.82C57.32 6.82 57.25 6.87 57.22 6.97L55.36 12.52C55.31 12.63 55.29 12.73 55.26 12.82L55.17 13.12C55.17 13.09 55.15 12.99 55.12 12.82C55.10 12.73 55.08 12.63 55.05 12.52L53.41 7.41C53.56 7.41 53.72 7.39 53.83 7.39C53.94 7.39 54.03 7.38 54.05 7.38L54.14 7.38C54.32 7.36 54.42 7.28 54.42 7.13L54.42 6.86L53.05 6.85L52.53 6.86L51.98 6.86L51.98 7.13C51.98 7.28 52.07 7.36 52.25 7.38L52.32 7.38L52.39 7.38C52.42 7.38 52.46 7.39 52.51 7.39L52.71 7.39L54.87 13.82L55.33 13.82C55.41 13.82 55.47 13.76 55.50 13.66L57.43 8.01C57.46 7.94 57.48 7.88 57.50 7.81L57.54 7.60L57.58 7.81C57.60 7.88 57.62 7.94 57.65 8.01L59.56 13.66C59.58 13.76 59.65 13.82 59.72 13.82L60.21 13.82L62.36 7.39L62.62 7.39C62.71 7.39 62.75 7.38 62.78 7.38L62.85 7.38C63.03 7.36 63.13 7.28 63.13 7.13L63.13 6.86ZM76.57 13.29L76.47 13.29L76.24 13.29C76.15 13.29 76.03 13.27 75.92 13.27L75.92 9.28C75.92 8.89 75.88 8.55 75.78 8.23C75.68 7.91 75.54 7.64 75.36 7.42C75.18 7.20 74.94 7.03 74.66 6.92C74.38 6.79 74.06 6.73 73.68 6.73C73.18 6.73 72.73 6.83 72.32 7.01C71.92 7.20 71.54 7.48 71.18 7.84L71.29 8.05C71.33 8.13 71.40 8.18 71.50 8.18C71.57 8.18 71.67 8.12 71.76 8.02C71.86 7.92 72.00 7.84 72.17 7.73C72.34 7.62 72.52 7.52 72.76 7.42C73.00 7.32 73.28 7.28 73.61 7.28C74.16 7.28 74.58 7.45 74.86 7.80C75.14 8.15 75.26 8.64 75.26 9.28L75.26 10.01C74.48 10.02 73.81 10.09 73.25 10.21C72.69 10.32 72.23 10.47 71.86 10.65C71.50 10.84 71.25 11.06 71.08 11.31C70.91 11.56 70.83 11.83 70.83 12.12C70.83 12.45 70.88 12.73 70.98 12.95C71.09 13.17 71.23 13.36 71.40 13.50C71.57 13.64 71.78 13.75 72.00 13.82C72.23 13.89 72.45 13.93 72.69 13.93C72.97 13.93 73.23 13.90 73.47 13.85C73.71 13.79 73.92 13.71 74.13 13.61C74.34 13.51 74.54 13.38 74.73 13.23C74.91 13.08 75.10 12.91 75.29 12.73L75.39 13.62C75.42 13.75 75.52 13.82 75.66 13.82L75.67 13.82L75.92 13.82L76.85 13.82L76.85 13.54C76.85 13.38 76.75 13.30 76.57 13.29ZM75.26 12.26C75.10 12.43 74.94 12.60 74.77 12.74C74.61 12.88 74.42 13.01 74.23 13.12C74.03 13.23 73.82 13.30 73.60 13.36C73.37 13.41 73.12 13.44 72.86 13.44C72.67 13.44 72.49 13.43 72.32 13.37C72.16 13.31 72.02 13.24 71.89 13.13C71.76 13.02 71.65 12.88 71.58 12.71C71.50 12.54 71.47 12.35 71.47 12.11C71.47 11.86 71.54 11.63 71.69 11.44C71.85 11.24 72.07 11.09 72.38 10.95C72.69 10.81 73.08 10.70 73.56 10.61C74.03 10.53 74.61 10.47 75.26 10.46ZM89.67 6.80C89.49 6.76 89.31 6.73 89.10 6.73C88.55 6.73 88.09 6.89 87.71 7.21C87.33 7.53 87.04 7.98 86.81 8.54L86.76 7.07C86.76 6.99 86.73 6.93 86.70 6.90C86.67 6.87 86.62 6.86 86.53 6.86L86.18 6.86L86.18 6.86L85.18 6.86L85.18 7.13C85.18 7.31 85.27 7.36 85.44 7.38C85.53 7.38 85.61 7.38 86.18 7.41L86.18 13.26C85.61 13.29 85.53 13.29 85.44 13.29C85.27 13.30 85.18 13.36 85.18 13.54L85.18 13.82L86.18 13.82L86.84 13.82L86.84 13.82L87.85 13.82L87.85 13.54C87.85 13.36 87.75 13.30 87.58 13.29C87.50 13.29 87.42 13.29 86.84 13.26L86.84 9.30C87.05 8.68 87.33 8.20 87.67 7.88C88.00 7.56 88.44 7.39 88.97 7.39C89.11 7.39 89.24 7.41 89.35 7.42C89.46 7.43 89.57 7.45 89.64 7.48C89.73 7.50 89.77 7.53 89.82 7.55C89.88 7.56 89.92 7.57 89.95 7.57C90.03 7.57 90.08 7.53 90.09 7.46L90.17 7.00C90.02 6.92 89.85 6.85 89.67 6.80ZM101.12 6.73C100.63 6.73 100.18 6.83 99.79 7.00C99.40 7.17 99.08 7.41 98.81 7.71C98.55 8.02 98.34 8.39 98.20 8.81C98.06 9.23 97.97 9.69 97.97 10.19C97.97 10.78 98.06 11.31 98.21 11.77C98.36 12.24 98.57 12.61 98.85 12.94C99.13 13.26 99.47 13.50 99.86 13.66C100.25 13.83 100.69 13.90 101.16 13.90C101.43 13.90 101.70 13.89 101.95 13.83C102.20 13.78 102.45 13.71 102.68 13.62C102.90 13.54 103.11 13.44 103.29 13.31C103.47 13.19 103.63 13.06 103.74 12.92L103.56 12.70C103.53 12.66 103.47 12.63 103.42 12.63C103.38 12.63 103.29 12.66 103.19 12.74C103.10 12.82 102.96 12.91 102.77 13.01C102.61 13.10 102.38 13.17 102.13 13.26C101.88 13.34 101.57 13.38 101.22 13.38C100.83 13.38 100.48 13.31 100.16 13.17C99.83 13.03 99.57 12.84 99.34 12.57C99.12 12.31 98.95 11.97 98.83 11.58C98.70 11.19 98.64 10.71 98.64 10.19L98.64 10.07L103.67 10.07C103.74 10.07 103.78 10.05 103.81 10.01C103.84 9.97 103.87 9.90 103.87 9.80C103.87 9.31 103.80 8.88 103.66 8.50C103.52 8.12 103.33 7.78 103.08 7.53C102.84 7.28 102.55 7.08 102.21 6.94C101.88 6.80 101.51 6.73 101.12 6.73ZM101.14 7.24C101.46 7.24 101.74 7.29 102.00 7.41C102.27 7.52 102.49 7.67 102.68 7.88C102.86 8.09 103.01 8.33 103.11 8.62C103.21 8.92 103.26 9.25 103.26 9.63L98.67 9.63C98.71 9.27 98.80 8.93 98.92 8.64C99.05 8.34 99.22 8.09 99.43 7.88C99.64 7.67 99.89 7.52 100.17 7.41C100.45 7.29 100.77 7.24 101.14 7.24ZM125.45 6.73C124.96 6.73 124.52 6.83 124.12 7.00C123.73 7.17 123.41 7.41 123.14 7.71C122.88 8.02 122.67 8.39 122.53 8.81C122.39 9.23 122.30 9.69 122.30 10.19C122.30 10.78 122.39 11.31 122.54 11.77C122.70 12.24 122.91 12.61 123.19 12.94C123.47 13.26 123.80 13.50 124.19 13.66C124.59 13.83 125.02 13.90 125.50 13.90C125.76 13.90 126.03 13.89 126.28 13.83C126.53 13.78 126.78 13.71 127.01 13.62C127.23 13.54 127.44 13.44 127.62 13.31C127.81 13.19 127.96 13.06 128.07 12.92L127.89 12.70C127.86 12.66 127.81 12.63 127.75 12.63C127.71 12.63 127.62 12.66 127.53 12.74C127.43 12.82 127.29 12.91 127.11 13.01C126.94 13.10 126.71 13.17 126.46 13.26C126.21 13.34 125.90 13.38 125.55 13.38C125.16 13.38 124.81 13.31 124.49 13.17C124.17 13.03 123.90 12.84 123.68 12.57C123.45 12.31 123.28 11.97 123.16 11.58C123.03 11.19 122.98 10.71 122.98 10.19L122.98 10.07L128.00 10.07C128.07 10.07 128.11 10.05 128.14 10.01C128.17 9.97 128.20 9.90 128.20 9.80C128.20 9.31 128.13 8.88 127.99 8.50C127.85 8.12 127.67 7.78 127.41 7.53C127.18 7.28 126.88 7.08 126.55 6.94C126.21 6.80 125.85 6.73 125.45 6.73ZM125.47 7.24C125.79 7.24 126.07 7.29 126.34 7.41C126.60 7.52 126.83 7.67 127.01 7.88C127.19 8.09 127.34 8.33 127.44 8.62C127.54 8.92 127.60 9.25 127.60 9.63L123.00 9.63C123.05 9.27 123.13 8.93 123.26 8.64C123.38 8.34 123.55 8.09 123.76 7.88C123.97 7.67 124.22 7.52 124.50 7.41C124.78 7.29 125.10 7.24 125.47 7.24ZM143.67 13.29L143.60 13.29L143.49 13.29C143.44 13.29 143.37 13.27 143.28 13.27C143.18 13.27 143.07 13.26 142.94 13.26L142.94 9.37C142.94 8.96 142.88 8.60 142.79 8.27C142.69 7.95 142.55 7.67 142.35 7.45C142.16 7.22 141.92 7.06 141.62 6.93C141.33 6.80 140.99 6.75 140.62 6.75C140.10 6.75 139.62 6.87 139.20 7.11C138.78 7.36 138.42 7.67 138.10 8.08L138.04 7.03C138.03 6.92 137.96 6.86 137.83 6.86L137.47 6.86L136.46 6.86L136.46 7.13C136.46 7.28 136.54 7.36 136.72 7.38L136.81 7.38C136.84 7.38 136.86 7.39 136.91 7.39L137.12 7.39C137.21 7.39 137.34 7.41 137.47 7.41L137.47 13.26C137.30 13.26 137.16 13.29 137.05 13.29L136.82 13.29L136.72 13.29C136.54 13.30 136.46 13.38 136.46 13.54L136.46 13.82L137.47 13.82L138.12 13.82L139.13 13.82L139.13 13.54C139.13 13.38 139.05 13.30 138.87 13.29L138.78 13.29L138.68 13.29C138.64 13.29 138.57 13.27 138.47 13.27C138.38 13.27 138.25 13.26 138.12 13.26L138.12 8.60C138.43 8.19 138.78 7.87 139.17 7.63C139.57 7.39 139.99 7.28 140.45 7.28C141.06 7.28 141.53 7.46 141.82 7.83C142.11 8.20 142.27 8.71 142.27 9.37L142.27 13.82L142.94 13.82L143.95 13.82L143.95 13.54C143.95 13.38 143.85 13.30 143.67 13.29ZM154.87 6.73C154.49 6.73 154.15 6.79 153.85 6.90C153.54 7.01 153.29 7.15 153.06 7.35C152.84 7.55 152.67 7.77 152.56 8.05C152.45 8.33 152.38 8.64 152.38 8.97C152.38 9.39 152.47 9.76 152.66 10.08C152.84 10.40 153.09 10.65 153.43 10.85C153.29 10.92 153.17 11.00 153.06 11.10C152.95 11.20 152.87 11.28 152.80 11.40C152.73 11.51 152.67 11.61 152.63 11.72C152.59 11.83 152.57 11.93 152.57 12.03C152.57 12.29 152.63 12.49 152.77 12.64C152.91 12.80 153.09 12.89 153.33 12.98C152.91 13.12 152.56 13.33 152.32 13.59C152.08 13.86 151.96 14.18 151.96 14.55C151.96 14.80 152.03 15.05 152.15 15.27C152.28 15.50 152.46 15.69 152.71 15.86C152.96 16.03 153.27 16.17 153.64 16.27C154 16.37 154.43 16.42 154.92 16.42C155.40 16.42 155.85 16.35 156.24 16.23C156.63 16.10 156.94 15.95 157.22 15.74C157.50 15.53 157.71 15.29 157.85 15.02C157.99 14.76 158.06 14.49 158.06 14.20C158.06 13.89 158.00 13.64 157.86 13.44C157.72 13.24 157.53 13.12 157.30 13.01C157.08 12.89 156.80 12.82 156.51 12.78C156.21 12.74 155.92 12.71 155.61 12.70C155.30 12.68 154.99 12.66 154.70 12.64C154.41 12.63 154.14 12.61 153.92 12.56C153.69 12.50 153.50 12.43 153.36 12.32C153.22 12.21 153.15 12.05 153.15 11.86C153.15 11.72 153.20 11.56 153.31 11.41C153.43 11.26 153.58 11.13 153.78 11.02C154.10 11.14 154.46 11.19 154.87 11.19C155.23 11.19 155.57 11.14 155.88 11.03C156.18 10.92 156.44 10.78 156.66 10.58C156.88 10.39 157.04 10.16 157.16 9.88C157.29 9.60 157.35 9.31 157.35 8.97C157.35 8.72 157.32 8.48 157.25 8.26C157.18 8.04 157.07 7.84 156.94 7.66L158.00 7.57C158.13 7.56 158.20 7.50 158.20 7.39L158.20 7.15L156.41 7.15C156.20 7.01 155.96 6.92 155.71 6.85C155.46 6.78 155.18 6.73 154.87 6.73ZM157.46 14.29C157.46 14.53 157.39 14.74 157.26 14.94C157.14 15.13 156.95 15.33 156.73 15.47C156.51 15.61 156.24 15.72 155.93 15.81C155.62 15.89 155.29 15.92 154.94 15.92C154.56 15.92 154.22 15.88 153.93 15.81C153.64 15.74 153.37 15.62 153.17 15.50C152.98 15.37 152.82 15.22 152.71 15.05C152.60 14.88 152.56 14.69 152.56 14.48C152.56 14.31 152.60 14.17 152.66 14.03C152.71 13.89 152.80 13.76 152.91 13.65C153.02 13.54 153.13 13.43 153.29 13.34C153.44 13.26 153.61 13.17 153.79 13.10C154.03 13.15 154.28 13.17 154.56 13.19C154.84 13.20 155.09 13.22 155.37 13.23C155.65 13.24 155.90 13.26 156.16 13.29C156.41 13.31 156.63 13.38 156.83 13.45C157.02 13.52 157.16 13.62 157.28 13.76C157.39 13.90 157.46 14.07 157.46 14.29ZM154.87 10.74C154.57 10.74 154.32 10.70 154.08 10.61C153.85 10.53 153.65 10.40 153.48 10.25C153.31 10.09 153.20 9.91 153.12 9.70C153.03 9.49 152.99 9.25 152.99 8.99C152.99 8.72 153.03 8.48 153.12 8.26C153.20 8.04 153.31 7.87 153.48 7.71C153.65 7.56 153.85 7.43 154.08 7.35C154.32 7.27 154.57 7.22 154.87 7.22C155.16 7.22 155.43 7.27 155.65 7.35C155.88 7.43 156.07 7.56 156.24 7.71C156.41 7.87 156.53 8.04 156.62 8.26C156.70 8.48 156.74 8.71 156.74 8.97C156.74 9.24 156.70 9.49 156.62 9.70C156.53 9.91 156.41 10.09 156.25 10.25C156.10 10.40 155.90 10.53 155.67 10.61C155.43 10.70 155.16 10.74 154.87 10.74ZM167.37 4.89C167.43 4.94 167.50 4.98 167.57 5.01C167.64 5.04 167.72 5.07 167.80 5.07C167.89 5.07 167.97 5.04 168.04 5.01C168.11 4.98 168.18 4.94 168.24 4.89C168.29 4.83 168.35 4.76 168.38 4.69C168.41 4.62 168.43 4.54 168.43 4.45C168.43 4.37 168.41 4.30 168.38 4.21C168.35 4.14 168.29 4.07 168.24 4.02C168.18 3.96 168.11 3.91 168.04 3.88C167.97 3.85 167.89 3.84 167.80 3.84C167.72 3.84 167.64 3.85 167.57 3.88C167.50 3.91 167.43 3.96 167.37 4.02C167.31 4.07 167.27 4.14 167.24 4.21C167.22 4.28 167.19 4.37 167.19 4.45C167.19 4.54 167.22 4.62 167.24 4.69C167.27 4.76 167.31 4.83 167.37 4.89ZM168.87 13.29L168.80 13.29L168.69 13.29C168.64 13.29 168.57 13.27 168.48 13.27C168.38 13.27 168.27 13.26 168.14 13.26L168.14 6.85L167.47 6.85L166.46 6.85L166.46 7.13C166.46 7.28 166.56 7.36 166.74 7.38L166.81 7.38C166.84 7.38 166.88 7.39 166.92 7.39L167.13 7.39C167.23 7.39 167.34 7.41 167.47 7.41L167.47 13.26C167.31 13.26 167.17 13.29 167.06 13.29L166.82 13.29L166.74 13.29C166.56 13.30 166.46 13.38 166.46 13.54L166.46 13.82L167.47 13.82L168.14 13.82L169.15 13.82L169.15 13.54C169.15 13.38 169.05 13.30 168.87 13.29ZM184.65 13.29L184.58 13.29L184.46 13.29C184.42 13.29 184.35 13.27 184.25 13.27C184.16 13.27 184.04 13.26 183.92 13.26L183.92 9.37C183.92 8.96 183.86 8.60 183.76 8.27C183.67 7.95 183.53 7.67 183.33 7.45C183.13 7.22 182.90 7.06 182.60 6.93C182.31 6.80 181.97 6.75 181.59 6.75C181.08 6.75 180.60 6.87 180.18 7.11C179.76 7.36 179.40 7.67 179.07 8.08L179.02 7.03C179.00 6.92 178.93 6.86 178.81 6.86L178.44 6.86L177.44 6.86L177.44 7.13C177.44 7.28 177.52 7.36 177.70 7.38L177.79 7.38C177.81 7.38 177.84 7.39 177.88 7.39L178.09 7.39C178.19 7.39 178.32 7.41 178.44 7.41L178.44 13.26C178.28 13.26 178.14 13.29 178.02 13.29L177.80 13.29L177.70 13.29C177.52 13.30 177.44 13.38 177.44 13.54L177.44 13.82L178.44 13.82L179.10 13.82L180.11 13.82L180.11 13.54C180.11 13.38 180.03 13.30 179.84 13.29L179.76 13.29L179.66 13.29C179.62 13.29 179.55 13.27 179.45 13.27C179.35 13.27 179.23 13.26 179.10 13.26L179.10 8.60C179.41 8.19 179.76 7.87 180.15 7.63C180.54 7.39 180.96 7.28 181.43 7.28C182.04 7.28 182.50 7.46 182.80 7.83C183.09 8.20 183.25 8.71 183.25 9.37L183.25 13.82L183.92 13.82L184.93 13.82L184.93 13.54C184.93 13.38 184.83 13.30 184.65 13.29ZM196.20 6.73C195.71 6.73 195.26 6.83 194.87 7.00C194.47 7.17 194.15 7.41 193.89 7.71C193.62 8.02 193.41 8.39 193.27 8.81C193.13 9.23 193.05 9.69 193.05 10.19C193.05 10.78 193.13 11.31 193.28 11.77C193.44 12.24 193.65 12.61 193.93 12.94C194.21 13.26 194.54 13.50 194.94 13.66C195.33 13.83 195.76 13.90 196.24 13.90C196.50 13.90 196.77 13.89 197.02 13.83C197.27 13.78 197.53 13.71 197.75 13.62C197.97 13.54 198.18 13.44 198.37 13.31C198.55 13.19 198.70 13.06 198.81 12.92L198.63 12.70C198.60 12.66 198.55 12.63 198.49 12.63C198.45 12.63 198.37 12.66 198.27 12.74C198.17 12.82 198.03 12.91 197.85 13.01C197.68 13.10 197.46 13.17 197.20 13.26C196.95 13.34 196.64 13.38 196.29 13.38C195.90 13.38 195.55 13.31 195.23 13.17C194.91 13.03 194.64 12.84 194.42 12.57C194.19 12.31 194.03 11.97 193.90 11.58C193.77 11.19 193.72 10.71 193.72 10.19L193.72 10.07L198.74 10.07C198.81 10.07 198.86 10.05 198.88 10.01C198.91 9.97 198.94 9.90 198.94 9.80C198.94 9.31 198.87 8.88 198.73 8.50C198.59 8.12 198.41 7.78 198.16 7.53C197.92 7.28 197.62 7.08 197.29 6.94C196.95 6.80 196.59 6.73 196.20 6.73ZM196.21 7.24C196.53 7.24 196.81 7.29 197.08 7.41C197.34 7.52 197.57 7.67 197.75 7.88C197.93 8.09 198.09 8.33 198.18 8.62C198.28 8.92 198.34 9.25 198.34 9.63L193.75 9.63C193.79 9.27 193.87 8.93 194.00 8.64C194.12 8.34 194.29 8.09 194.50 7.88C194.71 7.67 194.96 7.52 195.24 7.41C195.52 7.29 195.85 7.24 196.21 7.24ZM210.15 6.73C209.66 6.73 209.22 6.83 208.82 7.00C208.43 7.17 208.11 7.41 207.84 7.71C207.58 8.02 207.37 8.39 207.23 8.81C207.09 9.23 207.00 9.69 207.00 10.19C207.00 10.78 207.09 11.31 207.24 11.77C207.40 12.24 207.61 12.61 207.89 12.94C208.17 13.26 208.50 13.50 208.89 13.66C209.29 13.83 209.72 13.90 210.20 13.90C210.46 13.90 210.73 13.89 210.98 13.83C211.23 13.78 211.48 13.71 211.71 13.62C211.93 13.54 212.14 13.44 212.32 13.31C212.51 13.19 212.66 13.06 212.77 12.92L212.59 12.70C212.56 12.66 212.51 12.63 212.45 12.63C212.41 12.63 212.32 12.66 212.23 12.74C212.13 12.82 211.99 12.91 211.81 13.01C211.64 13.10 211.41 13.17 211.16 13.26C210.91 13.34 210.60 13.38 210.25 13.38C209.86 13.38 209.51 13.31 209.19 13.17C208.87 13.03 208.60 12.84 208.38 12.57C208.15 12.31 207.98 11.97 207.86 11.58C207.73 11.19 207.68 10.71 207.68 10.19L207.68 10.07L212.70 10.07C212.77 10.07 212.81 10.05 212.84 10.01C212.87 9.97 212.90 9.90 212.90 9.80C212.90 9.31 212.83 8.88 212.69 8.50C212.55 8.12 212.37 7.78 212.11 7.53C211.88 7.28 211.58 7.08 211.25 6.94C210.91 6.80 210.55 6.73 210.15 6.73ZM210.17 7.24C210.49 7.24 210.77 7.29 211.04 7.41C211.30 7.52 211.53 7.67 211.71 7.88C211.89 8.09 212.04 8.33 212.14 8.62C212.24 8.92 212.30 9.25 212.30 9.63L207.70 9.63C207.75 9.27 207.83 8.93 207.96 8.64C208.08 8.34 208.25 8.09 208.46 7.88C208.67 7.67 208.92 7.52 209.20 7.41C209.48 7.29 209.80 7.24 210.17 7.24ZM225.65 6.80C225.47 6.76 225.29 6.73 225.08 6.73C224.53 6.73 224.07 6.89 223.69 7.21C223.31 7.53 223.02 7.98 222.80 8.54L222.74 7.07C222.74 6.99 222.71 6.93 222.68 6.90C222.66 6.87 222.60 6.86 222.52 6.86L222.17 6.86L222.17 6.86L221.16 6.86L221.16 7.13C221.16 7.31 221.26 7.36 221.42 7.38C221.51 7.38 221.59 7.38 222.17 7.41L222.17 13.26C221.59 13.29 221.51 13.29 221.42 13.29C221.26 13.30 221.16 13.36 221.16 13.54L221.16 13.82L222.17 13.82L222.82 13.82L222.82 13.82L223.83 13.82L223.83 13.54C223.83 13.36 223.73 13.30 223.57 13.29C223.48 13.29 223.40 13.29 222.82 13.26L222.82 9.30C223.03 8.68 223.31 8.20 223.65 7.88C223.99 7.56 224.42 7.39 224.95 7.39C225.09 7.39 225.22 7.41 225.33 7.42C225.44 7.43 225.55 7.45 225.62 7.48C225.71 7.50 225.75 7.53 225.81 7.55C225.86 7.56 225.90 7.57 225.93 7.57C226.02 7.57 226.06 7.53 226.07 7.46L226.16 7.00C226.00 6.92 225.83 6.85 225.65 6.80Z" style="stroke-width: 54.6516px;"/>
  </g>
</svg>