<svg data-v-fde0c5aa="" xmlns="http://www.w3.org/2000/svg" viewBox="0 0 300 300" class="font"><!----><defs data-v-fde0c5aa=""><!----></defs><rect data-v-fde0c5aa="" fill="#D3C1AB" x="0" y="0" width="300px" height="300px" class="logo-background-square"></rect><defs data-v-fde0c5aa=""><!----></defs><g data-v-fde0c5aa="" id="8a0ab8e7-aab0-4a30-9bc4-861a9b6f8d9d" fill="#844112" transform="matrix(4.711929503025613,0,0,4.711929503025613,38.02098953009043,112.98779282130224)"><path d="M5.66 4.09C5.12 3.71 4.40 3.46 3.70 3.46C1.90 3.46 0.45 4.68 0.45 6.83C0.45 8.68 1.69 10.18 3.70 10.18C4.98 10.18 6.31 10.77 6.31 12.25C6.31 13.72 5.08 14.34 3.70 14.34C2.31 14.34 1.11 13.66 1.11 12.25L0.42 12.25C0.42 14 1.86 15.01 3.70 15.01C5.53 15.01 6.99 14.11 6.99 12.25C6.99 11.06 6.31 10.21 5.10 9.77C6.24 9.25 6.96 8.04 6.96 6.83C6.96 5.71 6.59 5.01 6.10 4.48L6.78 3.70L6.33 3.30ZM3.70 4.14C5.12 4.14 6.29 5.08 6.29 6.83C6.29 8.26 5.12 9.49 3.70 9.49C2.11 9.49 1.13 8.26 1.13 6.83C1.13 5.03 2.28 4.14 3.70 4.14ZM14.34 3.58L14.34 5.10C13.76 4.02 12.63 3.50 11.51 3.50C9.58 3.50 7.99 4.93 7.99 7.04C7.99 9.16 9.58 10.61 11.51 10.61C12.63 10.61 13.66 10.11 14.34 9.03L14.34 10.50L15.02 10.50C15.02 8.19 15.02 5.89 15.02 3.58ZM11.51 4.16C15.36 4.16 15.36 9.94 11.51 9.94C9.94 9.94 8.68 8.78 8.68 7.04C8.68 5.31 9.94 4.16 11.51 4.16ZM16.88 0.70L16.88 10.50L17.57 10.50L17.57 0.70ZM19.49 0.70L19.49 10.50L20.17 10.50L20.17 0.70ZM22.78 3.56L22.78 10.50L22.09 10.50L22.09 3.56ZM21.90 1.33C21.90 2.06 23.00 2.06 23.00 1.33C23.00 0.60 21.90 0.60 21.90 1.33ZM29.62 4.09C29.09 3.71 28.36 3.46 27.66 3.46C25.87 3.46 24.42 4.68 24.42 6.83C24.42 8.68 25.66 10.18 27.66 10.18C28.95 10.18 30.28 10.77 30.28 12.25C30.28 13.72 29.05 14.34 27.66 14.34C26.28 14.34 25.07 13.66 25.07 12.25L24.39 12.25C24.39 14 25.83 15.01 27.66 15.01C29.50 15.01 30.95 14.11 30.95 12.25C30.95 11.06 30.28 10.21 29.06 9.77C30.21 9.25 30.93 8.04 30.93 6.83C30.93 5.71 30.56 5.01 30.07 4.48L30.74 3.70L30.30 3.30ZM27.66 4.14C29.09 4.14 30.25 5.08 30.25 6.83C30.25 8.26 29.09 9.49 27.66 9.49C26.08 9.49 25.10 8.26 25.10 6.83C25.10 5.03 26.25 4.14 27.66 4.14ZM38.30 3.58L38.30 5.10C37.73 4.02 36.60 3.50 35.48 3.50C33.54 3.50 31.96 4.93 31.96 7.04C31.96 9.16 33.54 10.61 35.48 10.61C36.60 10.61 37.63 10.11 38.30 9.03L38.30 10.50L38.99 10.50C38.99 8.19 38.99 5.89 38.99 3.58ZM35.48 4.16C39.33 4.16 39.33 9.94 35.48 9.94C33.91 9.94 32.65 8.78 32.65 7.04C32.65 5.31 33.91 4.16 35.48 4.16ZM40.85 3.58L40.85 10.50L41.54 10.50L41.54 6.65C41.54 5.22 42.53 4.14 43.96 4.13C45.46 4.12 46.42 4.96 46.42 6.52L46.42 10.50L47.11 10.50L47.11 6.51C47.11 4.59 45.84 3.46 43.99 3.46C43.02 3.47 42.06 3.86 41.52 4.82L41.52 3.58Z"></path></g><!----><!----></svg>